<mxfile host="app.diagrams.net" modified="2024-03-01T10:50:10.799Z" agent="Mozilla/5.0 (Macintosh; Intel Mac OS X 10_15_7) AppleWebKit/537.36 (KHTML, like Gecko) Chrome/121.0.0.0 Safari/537.36" etag="-fZIJ5VlZuSueHeQnOc2" version="24.0.0" type="github">
  <diagram name="Page-1" id="o2eNlrpK71aY61N3sGEc">
    <mxGraphModel dx="1194" dy="1481" grid="1" gridSize="10" guides="1" tooltips="1" connect="1" arrows="1" fold="1" page="1" pageScale="1" pageWidth="1600" pageHeight="900" math="0" shadow="0">
      <root>
        <mxCell id="0" />
        <mxCell id="1" parent="0" />
        <mxCell id="OiPuidNy8R0qe59PSw-A-31" value="VPC" style="sketch=0;outlineConnect=0;gradientColor=none;html=1;whiteSpace=wrap;fontSize=12;fontStyle=0;shape=mxgraph.aws4.group;grIcon=mxgraph.aws4.group_vpc;strokeColor=#879196;fillColor=none;verticalAlign=top;align=left;spacingLeft=30;fontColor=#879196;dashed=0;" parent="1" vertex="1">
          <mxGeometry x="679" y="421" width="220" height="380" as="geometry" />
        </mxCell>
        <mxCell id="OiPuidNy8R0qe59PSw-A-2" value="Real time data producer" style="text;html=1;strokeColor=none;fillColor=none;align=center;verticalAlign=middle;whiteSpace=wrap;rounded=0;" parent="1" vertex="1">
          <mxGeometry x="100" y="80" width="130" height="30" as="geometry" />
        </mxCell>
        <mxCell id="OiPuidNy8R0qe59PSw-A-3" value="" style="endArrow=classic;html=1;rounded=0;exitX=0.75;exitY=1;exitDx=0;exitDy=0;" parent="1" source="OiPuidNy8R0qe59PSw-A-2" edge="1">
          <mxGeometry width="50" height="50" relative="1" as="geometry">
            <mxPoint x="250" y="160" as="sourcePoint" />
            <mxPoint x="240" y="260" as="targetPoint" />
          </mxGeometry>
        </mxCell>
        <mxCell id="OiPuidNy8R0qe59PSw-A-6" value="" style="outlineConnect=0;dashed=0;verticalLabelPosition=bottom;verticalAlign=top;align=center;html=1;shape=mxgraph.aws3.topic;fillColor=#5294CF;gradientColor=none;" parent="1" vertex="1">
          <mxGeometry x="220" y="270" width="49.5" height="66" as="geometry" />
        </mxCell>
        <mxCell id="OiPuidNy8R0qe59PSw-A-12" value="" style="aspect=fixed;html=1;points=[];align=center;image;fontSize=12;image=img/lib/azure2/app_services/API_Management_Services.svg;" parent="1" vertex="1">
          <mxGeometry x="935" y="29" width="65" height="60" as="geometry" />
        </mxCell>
        <mxCell id="OiPuidNy8R0qe59PSw-A-13" value="Wetterdaten API" style="text;html=1;strokeColor=none;fillColor=none;align=center;verticalAlign=middle;whiteSpace=wrap;rounded=0;" parent="1" vertex="1">
          <mxGeometry x="900" y="-1" width="130" height="30" as="geometry" />
        </mxCell>
        <mxCell id="OiPuidNy8R0qe59PSw-A-14" value="" style="shape=image;html=1;verticalAlign=top;verticalLabelPosition=bottom;labelBackgroundColor=#ffffff;imageAspect=0;aspect=fixed;image=https://cdn1.iconfinder.com/data/icons/Futurosoft%20Icons%200.5.2/128x128/mimetypes/Schedule_File.png" parent="1" vertex="1">
          <mxGeometry x="523" y="61" width="68" height="68" as="geometry" />
        </mxCell>
        <mxCell id="OiPuidNy8R0qe59PSw-A-15" value="Jede Stunde" style="text;html=1;strokeColor=none;fillColor=none;align=center;verticalAlign=middle;whiteSpace=wrap;rounded=0;" parent="1" vertex="1">
          <mxGeometry x="480" y="20" width="130" height="30" as="geometry" />
        </mxCell>
        <mxCell id="OiPuidNy8R0qe59PSw-A-16" value="Batch job aggregiert Daten" style="text;html=1;strokeColor=none;fillColor=none;align=center;verticalAlign=middle;whiteSpace=wrap;rounded=0;" parent="1" vertex="1">
          <mxGeometry x="540" y="240" width="130" height="30" as="geometry" />
        </mxCell>
        <mxCell id="OiPuidNy8R0qe59PSw-A-18" value="" style="editableCssRules=.*;shape=image;verticalLabelPosition=bottom;labelBackgroundColor=#ffffff;verticalAlign=top;aspect=fixed;imageAspect=0;image=data:image/svg+xml,PHN2ZyB4bWxucz0iaHR0cDovL3d3dy53My5vcmcvMjAwMC9zdmciIHhtbG5zOnY9Imh0dHBzOi8vdmVjdGEuaW8vbmFubyIgd2lkdGg9IjExLjUzOTk5OTk2MTg1MzAyNyIgaGVpZ2h0PSIxNiIgdmlld0JveD0iMCAwIDExLjUzOTk5OTk2MTg1MzAyNyAxNiI+JiN4YTsJPHN0eWxlIHR5cGU9InRleHQvY3NzIj4mI3hhOwkuc3Qwe2ZpbGw6IzQyODVmNDt9JiN4YTsJPC9zdHlsZT4mI3hhOwk8Y2lyY2xlIGNsYXNzPSJzdDAiIGN4PSIxMC42MyIgY3k9IjguMDEiIHI9Ii45MSIvPiYjeGE7CTxjaXJjbGUgY2xhc3M9InN0MCIgY3g9Ii45MSIgY3k9IjguMDEiIHI9Ii45MSIvPiYjeGE7CTxjaXJjbGUgY2xhc3M9InN0MCIgY3g9IjUuNzciIGN5PSI2LjY1IiByPSIuOTEiLz4mI3hhOwk8Y2lyY2xlIGNsYXNzPSJzdDAiIGN4PSI1Ljc3IiBjeT0iOS4zNyIgcj0iLjkxIi8+JiN4YTsJPHBhdGggY2xhc3M9InN0MCIgZD0iTTguNTcgMGgtLjAzTDUuNzcgMS42aDAgMEwzIDBoLS4wM0wxLjYyLjc4IDQuNCAyLjM5LjIgNC44djEuN2gxLjQ0di0uOTFsMy40NC0yLjAydjEuNDhoMS4zOFYzLjU3TDkuOSA1LjU5di45MWgxLjQ0VjQuOGwtNC4yLTIuNDFMOS45Mi43OHpNNi40NiAxMC45Nkg1LjA4djEuNDZsLTMuNDQtMi4wMVY5LjVILjJ2MS43bDQuMjEgMi40MS0yLjc5IDEuNjEgMS4zNS43OEgzbDIuNzctMS42TDguNTQgMTZoLjAzbDEuMzUtLjc4LTIuNzktMS42MSA0LjIxLTIuNDFWOS41SDkuOXYuOTFsLTMuNDQgMi4wMXoiLz4mI3hhOzwvc3ZnPg==;" parent="1" vertex="1">
          <mxGeometry x="580" y="170" width="42" height="56" as="geometry" />
        </mxCell>
        <mxCell id="OiPuidNy8R0qe59PSw-A-19" value="" style="endArrow=classic;html=1;rounded=0;" parent="1" edge="1">
          <mxGeometry width="50" height="50" relative="1" as="geometry">
            <mxPoint x="570" y="210" as="sourcePoint" />
            <mxPoint x="280" y="320" as="targetPoint" />
          </mxGeometry>
        </mxCell>
        <mxCell id="OiPuidNy8R0qe59PSw-A-20" value="Zieht sich real time Daten der letzten 15 Minuten" style="text;html=1;strokeColor=none;fillColor=none;align=center;verticalAlign=middle;whiteSpace=wrap;rounded=0;" parent="1" vertex="1">
          <mxGeometry x="340" y="216" width="130" height="30" as="geometry" />
        </mxCell>
        <mxCell id="OiPuidNy8R0qe59PSw-A-21" value="" style="editableCssRules=.*;shape=image;verticalLabelPosition=bottom;labelBackgroundColor=#ffffff;verticalAlign=top;aspect=fixed;imageAspect=0;image=data:image/svg+xml,PHN2ZyB4bWxucz0iaHR0cDovL3d3dy53My5vcmcvMjAwMC9zdmciIHhtbG5zOnY9Imh0dHBzOi8vdmVjdGEuaW8vbmFubyIgd2lkdGg9IjIwLjAwMTA0NTIyNzA1MDc4IiBoZWlnaHQ9IjIwLjAwMTA0NTIyNzA1MDc4IiBmaWxsLXJ1bGU9ImV2ZW5vZGQiIHZpZXdCb3g9IjAgMCAyMC4wMDEwNDUyMjcwNTA3OCAyMC4wMDEwNDUyMjcwNTA3OCI+JiN4YTsJPHN0eWxlIHR5cGU9InRleHQvY3NzIj4mI3hhOwkuc3Qwe2ZpbGw6I2FlY2JmYTt9JiN4YTsJLnN0MXtmaWxsOiM2NjlkZjY7fSYjeGE7CS5zdDJ7ZmlsbDojNDI4NWY0O30mI3hhOwk8L3N0eWxlPiYjeGE7CTxwYXRoIGNsYXNzPSJzdDAiIGQ9Ik00LjczIDguODN2Mi42M2E0LjkxIDQuOTEgMCAwIDAgMS43MSAxLjc0VjguODN6Ii8+JiN4YTsJPHBhdGggY2xhc3M9InN0MSIgZD0iTTcuODkgNi40MXY3LjUzQTcuNjIgNy42MiAwIDAgMCA5IDE0YTggOCAwIDAgMCAxIDBWNi40MXoiLz4mI3hhOwk8cGF0aCBjbGFzcz0ic3QwIiBkPSJNMTEuNjQgOS44NnYzLjI5YTUgNSAwIDAgMCAxLjctMS44MlY5Ljg2eiIvPiYjeGE7CTxwYXRoIGNsYXNzPSJzdDIiIGQ9Ik0xNS43NCAxNC4zMmwtMS40MiAxLjQyYS40Mi40MiAwIDAgMCAwIC42bDMuNTQgMy41NGEuNDIuNDIgMCAwIDAgLjU5IDBsMS40My0xLjQzYS40Mi40MiAwIDAgMCAwLS41OWwtMy41NC0zLjU0YS40Mi40MiAwIDAgMC0uNiAwIi8+JiN4YTsJPHBhdGggY2xhc3M9InN0MSIgZD0iTTkgMGE5IDkgMCAxIDAgMCAxOEE5IDkgMCAxIDAgOSAwbTAgMTUuNjlhNi42OCA2LjY4IDAgMCAxIC4wMDctMTMuMzYgNi42OCA2LjY4IDAgMCAxIDQuNzI3IDExLjQwM0E2LjY4IDYuNjggMCAwIDEgOSAxNS42OSIvPiYjeGE7PC9zdmc+;" parent="1" vertex="1">
          <mxGeometry x="980" y="202.5" width="40" height="40" as="geometry" />
        </mxCell>
        <mxCell id="OiPuidNy8R0qe59PSw-A-22" value="" style="endArrow=classic;html=1;rounded=0;entryX=0;entryY=0.25;entryDx=0;entryDy=0;" parent="1" target="OiPuidNy8R0qe59PSw-A-21" edge="1">
          <mxGeometry width="50" height="50" relative="1" as="geometry">
            <mxPoint x="640" y="200" as="sourcePoint" />
            <mxPoint x="290" y="330" as="targetPoint" />
          </mxGeometry>
        </mxCell>
        <mxCell id="OiPuidNy8R0qe59PSw-A-23" value="Schreibt partitioniert nach Zeit" style="text;html=1;strokeColor=none;fillColor=none;align=center;verticalAlign=middle;whiteSpace=wrap;rounded=0;" parent="1" vertex="1">
          <mxGeometry x="640" y="161.25" width="130" height="30" as="geometry" />
        </mxCell>
        <mxCell id="OiPuidNy8R0qe59PSw-A-24" value="" style="outlineConnect=0;dashed=0;verticalLabelPosition=bottom;verticalAlign=top;align=center;html=1;shape=mxgraph.aws3.classic_load_balancer;fillColor=#F58534;gradientColor=none;" parent="1" vertex="1">
          <mxGeometry x="610" y="572" width="69" height="72" as="geometry" />
        </mxCell>
        <mxCell id="OiPuidNy8R0qe59PSw-A-27" value="" style="shape=image;html=1;verticalAlign=top;verticalLabelPosition=bottom;labelBackgroundColor=#ffffff;imageAspect=0;aspect=fixed;image=https://cdn2.iconfinder.com/data/icons/boxicons-logos/24/bxl-angular-128.png" parent="1" vertex="1">
          <mxGeometry x="750" y="572" width="78" height="78" as="geometry" />
        </mxCell>
        <mxCell id="OiPuidNy8R0qe59PSw-A-29" value="" style="endArrow=classic;html=1;rounded=0;exitX=1;exitY=0.5;exitDx=0;exitDy=0;exitPerimeter=0;entryX=0.318;entryY=1.045;entryDx=0;entryDy=0;entryPerimeter=0;" parent="1" source="OiPuidNy8R0qe59PSw-A-24" target="OiPuidNy8R0qe59PSw-A-64" edge="1">
          <mxGeometry width="50" height="50" relative="1" as="geometry">
            <mxPoint x="649" y="586" as="sourcePoint" />
            <mxPoint x="750" y="609.9363636363637" as="targetPoint" />
          </mxGeometry>
        </mxCell>
        <mxCell id="OiPuidNy8R0qe59PSw-A-32" value="VPC" style="sketch=0;outlineConnect=0;gradientColor=none;html=1;whiteSpace=wrap;fontSize=12;fontStyle=0;shape=mxgraph.aws4.group;grIcon=mxgraph.aws4.group_vpc;strokeColor=#879196;fillColor=none;verticalAlign=top;align=left;spacingLeft=30;fontColor=#879196;dashed=0;" parent="1" vertex="1">
          <mxGeometry x="1000" y="421" width="220" height="380" as="geometry" />
        </mxCell>
        <mxCell id="OiPuidNy8R0qe59PSw-A-33" value="" style="shape=image;html=1;verticalAlign=top;verticalLabelPosition=bottom;labelBackgroundColor=#ffffff;imageAspect=0;aspect=fixed;image=https://cdn2.iconfinder.com/data/icons/boxicons-logos/24/bxl-spring-boot-128.png" parent="1" vertex="1">
          <mxGeometry x="1071" y="530" width="78" height="78" as="geometry" />
        </mxCell>
        <mxCell id="OiPuidNy8R0qe59PSw-A-36" value="" style="outlineConnect=0;dashed=0;verticalLabelPosition=bottom;verticalAlign=top;align=center;html=1;shape=mxgraph.aws3.classic_load_balancer;fillColor=#F58534;gradientColor=none;" parent="1" vertex="1">
          <mxGeometry x="899" y="575" width="69" height="72" as="geometry" />
        </mxCell>
        <mxCell id="OiPuidNy8R0qe59PSw-A-37" value="" style="endArrow=classic;html=1;rounded=0;" parent="1" source="OiPuidNy8R0qe59PSw-A-36" target="OiPuidNy8R0qe59PSw-A-32" edge="1">
          <mxGeometry width="50" height="50" relative="1" as="geometry">
            <mxPoint x="1300" y="306" as="sourcePoint" />
            <mxPoint x="870" y="232" as="targetPoint" />
          </mxGeometry>
        </mxCell>
        <mxCell id="OiPuidNy8R0qe59PSw-A-38" value="" style="endArrow=classic;html=1;rounded=0;entryX=0.5;entryY=1;entryDx=0;entryDy=0;" parent="1" source="OiPuidNy8R0qe59PSw-A-32" target="OiPuidNy8R0qe59PSw-A-21" edge="1">
          <mxGeometry width="50" height="50" relative="1" as="geometry">
            <mxPoint x="1290" y="340" as="sourcePoint" />
            <mxPoint x="1340" y="290" as="targetPoint" />
          </mxGeometry>
        </mxCell>
        <mxCell id="OiPuidNy8R0qe59PSw-A-39" value="" style="endArrow=classic;html=1;rounded=0;exitX=1;exitY=0.5;exitDx=0;exitDy=0;exitPerimeter=0;" parent="1" source="OiPuidNy8R0qe59PSw-A-60" target="OiPuidNy8R0qe59PSw-A-12" edge="1">
          <mxGeometry width="50" height="50" relative="1" as="geometry">
            <mxPoint x="1470" y="290" as="sourcePoint" />
            <mxPoint x="1300" y="323" as="targetPoint" />
          </mxGeometry>
        </mxCell>
        <mxCell id="OiPuidNy8R0qe59PSw-A-41" value="Actor" style="shape=umlActor;verticalLabelPosition=bottom;verticalAlign=top;html=1;outlineConnect=0;" parent="1" vertex="1">
          <mxGeometry x="480" y="578" width="30" height="60" as="geometry" />
        </mxCell>
        <mxCell id="OiPuidNy8R0qe59PSw-A-43" value="" style="endArrow=classic;html=1;rounded=0;entryX=0;entryY=0.5;entryDx=0;entryDy=0;entryPerimeter=0;" parent="1" target="OiPuidNy8R0qe59PSw-A-24" edge="1">
          <mxGeometry width="50" height="50" relative="1" as="geometry">
            <mxPoint x="500" y="608" as="sourcePoint" />
            <mxPoint x="534" y="558" as="targetPoint" />
          </mxGeometry>
        </mxCell>
        <mxCell id="OiPuidNy8R0qe59PSw-A-46" value="Tabellen nach Kommunen" style="text;html=1;strokeColor=none;fillColor=none;align=center;verticalAlign=middle;whiteSpace=wrap;rounded=0;" parent="1" vertex="1">
          <mxGeometry x="945" y="162" width="130" height="30" as="geometry" />
        </mxCell>
        <mxCell id="OiPuidNy8R0qe59PSw-A-48" value="Aktualisiert alle 15 Minuten&lt;br&gt;1. Zieht sich momentanes Wetter&lt;br&gt;2. Berechnet PV Ertrag nach Wetterlage&lt;br&gt;3. Berechnet Eigenverbrauch nach Wetterlage" style="text;html=1;strokeColor=none;fillColor=none;align=center;verticalAlign=middle;whiteSpace=wrap;rounded=0;" parent="1" vertex="1">
          <mxGeometry x="1030" y="3" width="250" height="86" as="geometry" />
        </mxCell>
        <mxCell id="OiPuidNy8R0qe59PSw-A-55" value="Standardlastprofilen etc." style="text;html=1;strokeColor=none;fillColor=none;align=center;verticalAlign=middle;whiteSpace=wrap;rounded=0;" parent="1" vertex="1">
          <mxGeometry x="1180" y="122" width="140" height="48" as="geometry" />
        </mxCell>
        <mxCell id="OiPuidNy8R0qe59PSw-A-56" value="Erzeuger-/Verbruacherdaten" style="text;html=1;strokeColor=none;fillColor=none;align=center;verticalAlign=middle;whiteSpace=wrap;rounded=0;" parent="1" vertex="1">
          <mxGeometry x="70" y="212.5" width="130" height="30" as="geometry" />
        </mxCell>
        <mxCell id="OiPuidNy8R0qe59PSw-A-59" value="" style="endArrow=classic;html=1;rounded=0;entryX=0;entryY=0;entryDx=0;entryDy=0;" parent="1" source="OiPuidNy8R0qe59PSw-A-60" target="OiPuidNy8R0qe59PSw-A-21" edge="1">
          <mxGeometry width="50" height="50" relative="1" as="geometry">
            <mxPoint x="1150" y="223" as="sourcePoint" />
            <mxPoint x="1020" y="252.5" as="targetPoint" />
          </mxGeometry>
        </mxCell>
        <mxCell id="OiPuidNy8R0qe59PSw-A-60" value="" style="outlineConnect=0;dashed=0;verticalLabelPosition=bottom;verticalAlign=top;align=center;html=1;shape=mxgraph.aws3.lambda_function;fillColor=#F58534;gradientColor=none;" parent="1" vertex="1">
          <mxGeometry x="731" y="29" width="69" height="72" as="geometry" />
        </mxCell>
        <mxCell id="OiPuidNy8R0qe59PSw-A-61" value="" style="endArrow=classic;html=1;rounded=0;" parent="1" source="OiPuidNy8R0qe59PSw-A-14" target="OiPuidNy8R0qe59PSw-A-60" edge="1">
          <mxGeometry width="50" height="50" relative="1" as="geometry">
            <mxPoint x="775.5" y="111" as="sourcePoint" />
            <mxPoint x="950" y="59.57729468599041" as="targetPoint" />
          </mxGeometry>
        </mxCell>
        <mxCell id="OiPuidNy8R0qe59PSw-A-63" value="GET Request mit path&lt;br&gt;Anhand des Path Parameters, welche Daten angezeigt werden sollen" style="text;html=1;strokeColor=none;fillColor=none;align=center;verticalAlign=middle;whiteSpace=wrap;rounded=0;" parent="1" vertex="1">
          <mxGeometry x="1030" y="600" width="170" height="110" as="geometry" />
        </mxCell>
        <mxCell id="OiPuidNy8R0qe59PSw-A-64" value="Anhand des Path Parameters, welche Icons etc. angezeigt werden sollen." style="text;html=1;strokeColor=none;fillColor=none;align=center;verticalAlign=middle;whiteSpace=wrap;rounded=0;" parent="1" vertex="1">
          <mxGeometry x="704" y="494" width="170" height="110" as="geometry" />
        </mxCell>
        <mxCell id="OiPuidNy8R0qe59PSw-A-65" value="Primär/Sekundärfarbe, Icons etc. customizable" style="text;html=1;strokeColor=none;fillColor=none;align=center;verticalAlign=middle;whiteSpace=wrap;rounded=0;" parent="1" vertex="1">
          <mxGeometry x="714" y="644" width="160" height="60" as="geometry" />
        </mxCell>
        <mxCell id="OiPuidNy8R0qe59PSw-A-67" value="" style="verticalLabelPosition=bottom;html=1;verticalAlign=top;align=center;strokeColor=none;fillColor=#00BEF2;shape=mxgraph.azure.sql_database;" parent="1" vertex="1">
          <mxGeometry x="1130" y="120" width="37.5" height="50" as="geometry" />
        </mxCell>
        <mxCell id="OiPuidNy8R0qe59PSw-A-68" value="" style="endArrow=classic;html=1;rounded=0;" parent="1" source="OiPuidNy8R0qe59PSw-A-60" edge="1">
          <mxGeometry width="50" height="50" relative="1" as="geometry">
            <mxPoint x="810" y="75" as="sourcePoint" />
            <mxPoint x="1120" y="145" as="targetPoint" />
          </mxGeometry>
        </mxCell>
        <mxCell id="OiPuidNy8R0qe59PSw-A-69" value="" style="sketch=0;points=[[0,0,0],[0.25,0,0],[0.5,0,0],[0.75,0,0],[1,0,0],[0,1,0],[0.25,1,0],[0.5,1,0],[0.75,1,0],[1,1,0],[0,0.25,0],[0,0.5,0],[0,0.75,0],[1,0.25,0],[1,0.5,0],[1,0.75,0]];outlineConnect=0;fontColor=#232F3E;gradientColor=#4AB29A;gradientDirection=north;fillColor=#116D5B;strokeColor=#ffffff;dashed=0;verticalLabelPosition=bottom;verticalAlign=top;align=center;html=1;fontSize=12;fontStyle=0;aspect=fixed;shape=mxgraph.aws4.resourceIcon;resIcon=mxgraph.aws4.augmented_ai;" parent="1" vertex="1">
          <mxGeometry x="726.5" y="-140" width="78" height="78" as="geometry" />
        </mxCell>
        <mxCell id="OiPuidNy8R0qe59PSw-A-70" value="" style="endArrow=classic;html=1;rounded=0;exitX=0.5;exitY=0;exitDx=0;exitDy=0;exitPerimeter=0;entryX=0.5;entryY=1;entryDx=0;entryDy=0;entryPerimeter=0;" parent="1" source="OiPuidNy8R0qe59PSw-A-60" target="OiPuidNy8R0qe59PSw-A-69" edge="1">
          <mxGeometry width="50" height="50" relative="1" as="geometry">
            <mxPoint x="810" y="75" as="sourcePoint" />
            <mxPoint x="945" y="70.16417910447763" as="targetPoint" />
          </mxGeometry>
        </mxCell>
      </root>
    </mxGraphModel>
  </diagram>
</mxfile>
